<svg width="64" height="64" viewBox="0 0 64 64" fill="none" xmlns="http://www.w3.org/2000/svg">
<g clip-path="url(#clip0_194452_21)">
<g filter="url(#filter0_d_194452_21)">
<path d="M35.9902 27.954C36.1728 27.7696 36.421 27.6651 36.6805 27.6632C36.94 27.6613 37.1898 27.7622 37.3751 27.9438C37.5605 28.1255 37.6664 28.3731 37.6697 28.6326C37.673 28.8921 37.5735 29.1423 37.3928 29.3287L32.1662 35.8627C32.0764 35.9593 31.968 36.0369 31.8476 36.0908C31.7271 36.1447 31.5971 36.1737 31.4652 36.1762C31.3333 36.1787 31.2022 36.1546 31.0798 36.1053C30.9574 36.056 30.8462 35.9826 30.7528 35.8893L27.2875 32.4253C27.1034 32.2411 26.9999 31.9913 27 31.7308C27.0001 31.4703 27.1036 31.2205 27.2878 31.0363C27.4721 30.8522 27.7219 30.7488 27.9824 30.7488C28.2429 30.7489 28.4927 30.8524 28.6768 31.0367L31.4175 33.778L35.9642 27.9847C35.9724 27.9741 35.9813 27.9641 35.9908 27.9547L35.9902 27.954Z" fill="white"/>
</g>
</g>
<defs>
<filter id="filter0_d_194452_21" x="27" y="27.6631" width="10.6699" height="10.5132" filterUnits="userSpaceOnUse" color-interpolation-filters="sRGB">
<feFlood flood-opacity="0" result="BackgroundImageFix"/>
<feColorMatrix in="SourceAlpha" type="matrix" values="0 0 0 0 0 0 0 0 0 0 0 0 0 0 0 0 0 0 127 0" result="hardAlpha"/>
<feOffset dy="2"/>
<feColorMatrix type="matrix" values="0 0 0 0 0 0 0 0 0 0 0 0 0 0 0 0 0 0 0.1 0"/>
<feBlend mode="normal" in2="BackgroundImageFix" result="effect1_dropShadow_194452_21"/>
<feBlend mode="normal" in="SourceGraphic" in2="effect1_dropShadow_194452_21" result="shape"/>
</filter>
<clipPath id="clip0_194452_21">
<rect width="10.6667" height="10.6667" fill="white" transform="translate(27 27)"/>
</clipPath>
</defs>
</svg>
